<?xml version="1.0" encoding="iso-8859-1"?>
<!-- Uploaded to: SVG Repo, www.svgrepo.com, Generator: SVG Repo Mixer Tools -->
<svg height="800px" width="800px" version="1.1" id="Layer_1" xmlns="http://www.w3.org/2000/svg" xmlns:xlink="http://www.w3.org/1999/xlink" 
	 viewBox="0 0 451.277 451.277" xml:space="preserve">
<circle style="fill:#EFC84A;" cx="225.638" cy="225.638" r="225.638"/>
<path style="opacity:0.1;enable-background:new    ;" d="M307.627,96.366H140.735c-4.137,0-7.522,3.338-7.522,7.522v12.787h-11.142
	c-2.821,0-5.077,2.257-5.077,5.03c0,1.552,0.749,2.889,1.866,3.813h-0.071l14.424,14.424v6.398h-11.142
	c-2.821,0-5.077,2.257-5.077,5.077c0,1.604,0.804,2.972,1.987,3.894h-0.191l14.424,14.424v6.317h-11.142
	c-2.821,0-5.077,2.257-5.077,5.03c0,1.604,0.775,2.965,1.922,3.893h-0.127l14.424,14.424v6.364h-11.142
	c-2.821,0-5.077,2.257-5.077,5.03c0,1.574,0.771,2.923,1.915,3.846h-0.12l14.424,14.424v6.364h-11.142
	c-2.821,0-5.077,2.257-5.077,5.077c0,1.543,0.739,2.875,1.845,3.799h-0.05l14.424,14.423v6.412h-11.142
	c-2.821,0-5.077,2.257-5.077,5.03c0,1.546,0.719,2.871,1.796,3.799h-0.001l0.027,0.027l14.397,14.396v6.412h-11.142
	c-2.821,0-5.077,2.304-5.077,5.077c0,1.519,0.719,2.829,1.796,3.751h-0.001l0.043,0.043l14.381,14.381v6.459h-11.142
	c-2.821,0-5.077,2.257-5.077,5.077c0,1.602,0.802,2.968,1.981,3.89l14.281,14.281c0.112,2.296,1.247,4.322,2.978,5.629
	l97.694,97.694c117.107-4.236,211.457-97.651,217.09-214.395L313.213,98.888C311.833,97.348,309.85,96.366,307.627,96.366z"/>
<path style="fill:#3A556A;" d="M140.737,96.355c-4.153,0-7.521,3.367-7.521,7.521V347.4c0,4.154,3.368,7.521,7.521,7.521h29.656
	V96.355H140.737z"/>
<path style="fill:#64798A;" d="M307.611,96.355H170.393v258.566h137.218c4.154,0,7.521-3.367,7.521-7.521V103.877
	C315.132,99.723,311.765,96.355,307.611,96.355z"/>
<g>
	<path style="fill:#FFFFFF;" d="M122.058,126.755h24.212c2.788,0,5.048-2.26,5.048-5.048c0-2.788-2.26-5.048-5.048-5.048h-24.212
		c-2.788,0-5.048,2.26-5.048,5.048C117.01,124.494,119.269,126.755,122.058,126.755z"/>
	<path style="fill:#FFFFFF;" d="M146.27,146.353h-24.212c-2.788,0-5.048,2.26-5.048,5.048s2.26,5.048,5.048,5.048h24.212
		c2.788,0,5.048-2.26,5.048-5.048S149.058,146.353,146.27,146.353z"/>
	<path style="fill:#FFFFFF;" d="M146.27,176.048h-24.212c-2.788,0-5.048,2.26-5.048,5.048c0,2.788,2.26,5.048,5.048,5.048h24.212
		c2.788,0,5.048-2.26,5.048-5.048C151.318,178.308,149.058,176.048,146.27,176.048z"/>
	<path style="fill:#FFFFFF;" d="M146.27,205.743h-24.212c-2.788,0-5.048,2.26-5.048,5.048c0,2.788,2.26,5.048,5.048,5.048h24.212
		c2.788,0,5.048-2.26,5.048-5.048C151.318,208.003,149.058,205.743,146.27,205.743z"/>
	<path style="fill:#FFFFFF;" d="M146.27,235.438h-24.212c-2.788,0-5.048,2.26-5.048,5.048s2.26,5.048,5.048,5.048h24.212
		c2.788,0,5.048-2.26,5.048-5.048S149.058,235.438,146.27,235.438z"/>
	<path style="fill:#FFFFFF;" d="M146.27,265.132h-24.212c-2.788,0-5.048,2.26-5.048,5.048c0,2.788,2.26,5.048,5.048,5.048h24.212
		c2.788,0,5.048-2.26,5.048-5.048C151.318,267.393,149.058,265.132,146.27,265.132z"/>
	<path style="fill:#FFFFFF;" d="M146.27,294.827h-24.212c-2.788,0-5.048,2.26-5.048,5.048c0,2.788,2.26,5.048,5.048,5.048h24.212
		c2.788,0,5.048-2.26,5.048-5.048C151.318,297.087,149.058,294.827,146.27,294.827z"/>
	<path style="fill:#FFFFFF;" d="M146.27,324.522h-24.212c-2.788,0-5.048,2.26-5.048,5.048c0,2.788,2.26,5.048,5.048,5.048h24.212
		c2.788,0,5.048-2.26,5.048-5.048C151.318,326.782,149.058,324.522,146.27,324.522z"/>
</g>
<path style="fill:#E56353;" d="M327.736,121.707h-12.604v44.127h12.604c3.607,0,6.531-2.924,6.531-6.531v-31.065
	C334.267,124.631,331.343,121.707,327.736,121.707z"/>
<path style="fill:#44C4A1;" d="M327.736,165.833h-12.604v44.127h12.604c3.607,0,6.531-2.924,6.531-6.531v-31.065
	C334.267,168.758,331.343,165.833,327.736,165.833z"/>
<path style="fill:#27A2DB;" d="M327.736,209.96h-12.604v44.127h12.604c3.607,0,6.531-2.924,6.531-6.531v-31.065
	C334.267,212.884,331.343,209.96,327.736,209.96z"/>
<path style="fill:#EBF0F3;" d="M327.736,254.087h-12.604v44.127h12.604c3.607,0,6.531-2.924,6.531-6.531v-31.065
	C334.267,257.011,331.343,254.087,327.736,254.087z"/>
</svg>